HIERARCHY
ROOT RootJoint
{
    OFFSET   0.000000   0.000000   0.000000
    CHANNELS 6 Xposition Yposition Zposition Xrotation Yrotation Zrotation
    JOINT pelvis_lowerback
    {
        OFFSET   0.000000   0.093605   0.000000
        CHANNELS 3 Xrotation Yrotation Zrotation
        JOINT lowerback_torso
        {
            OFFSET   0.000000   0.100000   0.000000
            CHANNELS 3 Xrotation Yrotation Zrotation
            JOINT torso_head
            {
                OFFSET   0.000000   0.282350   0.000000
                CHANNELS 3 Xrotation Yrotation Zrotation
                End Site
                {
                    OFFSET   0.000000   0.192650   0.000000
                }
            }
            JOINT rTorso_Clavicle
            {
                OFFSET  -0.001000   0.157500   0.000000
                CHANNELS 3 Xrotation Yrotation Zrotation
                JOINT rShoulder
                {
                    OFFSET  -0.117647   0.000000   0.000000
                    CHANNELS 3 Xrotation Yrotation Zrotation
                    JOINT rElbow
                    {
                        OFFSET  -0.245000   0.000000   0.000000
                        CHANNELS 3 Xrotation Yrotation Zrotation
                        JOINT rWrist
                        {
                            OFFSET  -0.240000   0.000000   0.000000
                            CHANNELS 3 Xrotation Yrotation Zrotation
                            End Site
                            {
                                OFFSET  -0.116353  -0.002500   0.000000
                            }
                        }
                    }
                }
            }
            JOINT lTorso_Clavicle
            {
                OFFSET   0.001000   0.157500   0.000000
                CHANNELS 3 Xrotation Yrotation Zrotation
                JOINT lShoulder
                {
                    OFFSET   0.117647   0.000000   0.000000
                    CHANNELS 3 Xrotation Yrotation Zrotation
                    JOINT lElbow
                    {
                        OFFSET   0.245000   0.000000   0.000000
                        CHANNELS 3 Xrotation Yrotation Zrotation
                        JOINT lWrist
                        {
                            OFFSET   0.240000   0.000000   0.000000
                            CHANNELS 3 Xrotation Yrotation Zrotation
                            End Site
                            {
                                OFFSET   0.116353  -0.002500   0.000000
                            }
                        }
                    }
                }
            }
        }
    }
    JOINT rHip
    {
        OFFSET  -0.100000  -0.051395   0.000000
        CHANNELS 3 Xrotation Yrotation Zrotation
        JOINT rKnee
        {
            OFFSET   0.000000  -0.410000   0.000000
            CHANNELS 3 Xrotation Yrotation Zrotation
            JOINT rAnkle
            {
                OFFSET   0.000000  -0.390000   0.000000
                CHANNELS 3 Xrotation Yrotation Zrotation
                JOINT rToeJoint
                {
                    OFFSET   0.000000  -0.050000   0.130000
                    CHANNELS 3 Xrotation Yrotation Zrotation
                    End Site
                    {
                        OFFSET  -0.010000   0.002000   0.060000
                    }
                }
            }
        }
    }
    JOINT lHip
    {
        OFFSET   0.100000  -0.051395   0.000000
        CHANNELS 3 Xrotation Yrotation Zrotation
        JOINT lKnee
        {
            OFFSET   0.000000  -0.410000   0.000000
            CHANNELS 3 Xrotation Yrotation Zrotation
            JOINT lAnkle
            {
                OFFSET   0.000000  -0.390000   0.000000
                CHANNELS 3 Xrotation Yrotation Zrotation
                JOINT lToeJoint
                {
                    OFFSET   0.000000  -0.050000   0.130000
                    CHANNELS 3 Xrotation Yrotation Zrotation
                    End Site
                    {
                        OFFSET   0.010000   0.002000   0.060000
                    }
                }
            }
        }
    }
}
MOTION
Frames: 17
Frame Time:   0.008333
 -2.550100   0.913051   4.524859   8.855652  -4.243683   0.646700   1.124948  -6.752377   0.575349   0.303225  -3.633882   6.412661  -3.278186   4.741080  -1.481575  -0.787708   3.687567   8.698485  -2.844113  16.600443  34.975151   0.004444  81.099557  -0.003487   4.297633   2.940244  -6.359672  -6.530510 -14.448747   5.861077 -29.878037  -7.561752 -11.409031  -0.231396 -66.535729  -0.200697   3.142939  -5.560638  17.085594 -23.563262   1.810812  -1.303865  13.928650   0.000420  -0.000808   3.714352  -1.227042   0.415751  -4.505757   0.001216   0.001798  15.974704  -1.879196   9.201048   7.926130   0.000326   0.003180  15.047024  -0.027284  -4.678581 -16.841028   0.004570   0.029446
 -2.551136   0.913311   4.526490   8.937368  -4.157635   0.755267   1.422801  -6.763446   0.579446   0.543201  -3.693214   6.536585  -3.483431   4.834209  -1.465915  -0.929409   4.131493   8.861582  -3.029575  17.113785  35.069173  -0.001809  80.966763   0.002016   4.407898   2.919760  -6.544923  -6.387526 -15.174416   5.469352 -28.287143  -8.160342 -11.606585  -0.213757 -65.969900  -0.185555   3.380222  -5.426691  16.870060 -23.444017   1.978888  -1.366764  13.817781   0.000356  -0.000859   3.403938  -1.177010   0.153715  -4.180549   0.001636   0.002257  15.550232  -1.728742   9.113271   8.584017   0.000560   0.004306  14.818794   0.154882  -4.756469 -15.456969   0.005011   0.029662
 -2.552118   0.913599   4.528168   8.985164  -4.059207   0.863651   1.711395  -6.757638   0.596070   0.790443  -3.743847   6.644569  -3.687445   4.922218  -1.444405  -1.074491   4.572652   9.009727  -3.210241  17.603557  35.153604  -0.006697  80.831563   0.006319   4.508692   2.837389  -6.705341  -6.205383 -15.887035   5.045980 -26.761920  -8.737463 -11.835597  -0.196470 -65.453050  -0.170384   3.636953  -5.371134  16.466013 -23.299360   2.141226  -1.440871  13.734310   0.000297  -0.000850   3.099755  -1.134500  -0.091604  -3.892051   0.001873   0.002513  15.142161  -1.585546   9.016259   9.245561   0.000844   0.005243  14.611495   0.321335  -4.829604 -14.176347   0.005536   0.029238
 -2.553098   0.913903   4.529868   9.019138  -3.957233   0.968581   1.988997  -6.746707   0.615043   1.035632  -3.787933   6.740131  -3.882794   5.005273  -1.419286  -1.218648   4.999381   9.150431  -3.386256  18.070811  35.236392  -0.009935  80.706829   0.009151   4.604868   2.757701  -6.847596  -6.015791 -16.569069   4.614968 -25.321828  -9.283748 -12.067062  -0.179645 -64.972374  -0.155464   3.890397  -5.343204  15.974036 -23.149312   2.293811  -1.514853  13.669596   0.000248  -0.000804   2.809958  -1.095811  -0.320509  -3.639864   0.001957   0.002602  14.751236  -1.447023   8.927593   9.873289   0.001050   0.005880  14.422134   0.484315  -4.894660 -12.968990   0.005871   0.028457
 -2.554092   0.914213   4.531574   9.047295  -3.856126   1.069909   2.256106  -6.732321   0.631520   1.274678  -3.825350   6.823680  -4.067282   5.082979  -1.393122  -1.358427   5.405924   9.284434  -3.555495  18.513036  35.317534  -0.011909  80.592560   0.010862   4.698025   2.693121  -6.979046  -5.830512 -17.212667   4.191149 -23.969407  -9.798598 -12.287825  -0.163400 -64.524263  -0.141024   4.135780  -5.327365  15.453661 -23.000402   2.436865  -1.585262  13.617119   0.000208  -0.000740   2.535495  -1.059704  -0.533878  -3.417797   0.001937   0.002576  14.375203  -1.316825   8.849697  10.457094   0.001163   0.006213  14.246576   0.639139  -4.953983 -11.842653   0.006019   0.027254
 -2.555103   0.914526   4.533282   9.072779  -3.758211   1.167523   2.512897  -6.714422   0.643477   1.505920  -3.855794   6.895662  -4.240154   5.155477  -1.367382  -1.491814   5.789457   9.411192  -3.716505  18.928789  35.396000  -0.012980  80.487314   0.011779   4.788113   2.640590  -7.103183  -5.654579 -17.814905   3.782153 -22.702663 -10.282477 -12.492292  -0.147888 -64.106367  -0.127254   4.372486  -5.319784  14.933188 -22.854577   2.570755  -1.650573  13.573002   0.000175  -0.000669   2.275835  -1.025773  -0.732661  -3.221029   0.001848   0.002475  14.012822  -1.195835   8.782349  10.997576   0.001196   0.006299  14.083218   0.785011  -5.008432 -10.796988   0.005999   0.025721
 -2.556129   0.914839   4.534987   9.096873  -3.664237   1.261258   2.759202  -6.693042   0.650232   1.728456  -3.879367   6.956805  -4.401410   5.223055  -1.342782  -1.617809   6.148940   9.530242  -3.868564  19.317804  35.470942  -0.013416  80.389783   0.012140   4.874827   2.595336  -7.221850  -5.489979 -18.375369   3.391618 -21.517819 -10.736124 -12.678583  -0.133249 -63.716562  -0.114297   4.600544  -5.318808  14.426212 -22.712362   2.695866  -1.710257  13.535128   0.000149  -0.000599   2.030196  -0.993854  -0.917814  -3.046401   0.001719   0.002326  13.663582  -1.083890   8.724840  11.497304   0.001171   0.006202  13.931032   0.922152  -5.058508  -9.827972   0.005844   0.023982
 -2.557032   0.915040   4.536891   9.093934  -3.582669   1.404625   2.958382  -6.588528   0.633170   1.923700  -3.920749   6.983747  -4.566406   5.198768  -1.312484  -1.722690   6.539076   9.610166  -3.902792  19.635098  35.500748  -0.023108  80.022460   0.021071   5.014516   2.741165  -7.396203  -5.345536 -18.855125   2.943839 -20.173238 -11.294912 -12.909418  -0.117858 -63.433594  -0.100896   4.856448  -5.280282  14.078713 -22.530050   2.875500  -1.828370  13.523044   0.000120  -0.000501   1.626558  -0.906869  -1.148407  -2.688353   0.002055   0.002805  13.280799  -0.970657   8.596979  12.200668   0.001366   0.006635  13.889504   1.034193  -5.085632  -8.866260   0.005680   0.022539
 -2.557907   0.915187   4.538889   9.075984  -3.526780   1.543514   3.135930  -6.468297   0.626201   2.111368  -3.947480   7.001273  -4.733078   5.174889  -1.281960  -1.808472   6.907266   9.685302  -3.919705  19.919174  35.521970  -0.029735  79.651399   0.027115   5.134206   2.751704  -7.512782  -5.183484 -19.301141   2.481176 -18.895727 -11.819814 -13.150021  -0.104015 -63.178031  -0.088776   5.119110  -5.302443  13.658014 -22.332954   3.048530  -1.937593  13.523729   0.000096  -0.000400   1.199555  -0.821434  -1.351331  -2.310979   0.002267   0.003128  12.924234  -0.859674   8.470454  12.900716   0.001484   0.006789  13.858158   1.140829  -5.109888  -7.935635   0.005450   0.020996
 -2.558771   0.915307   4.540912   9.053784  -3.493057   1.674480   3.299721  -6.345897   0.622841   2.291623  -3.963417   7.015092  -4.894052   5.153179  -1.250642  -1.884091   7.250797   9.759424  -3.931337  20.181589  35.542808  -0.033279  79.299738   0.030275   5.242816   2.716775  -7.605517  -5.020718 -19.711591   2.023411 -17.693080 -12.307041 -13.382180  -0.091818 -62.938823  -0.078076   5.373029  -5.336148  13.209089 -22.136876   3.210765  -2.032877  13.532586   0.000076  -0.000308   0.779537  -0.738856  -1.534597  -1.946992   0.002343   0.003250  12.589710  -0.756090   8.353215  13.566311   0.001497   0.006650  13.831378   1.240028  -5.132205  -7.060276   0.005119   0.019272
 -2.559624   0.915414   4.542930   9.031114  -3.476312   1.798260   3.453620  -6.225203   0.619514   2.464426  -3.971512   7.025691  -5.046469   5.132984  -1.219788  -1.952471   7.570646   9.831550  -3.940502  20.425312  35.563606  -0.034609  78.970132   0.031393   5.344918   2.670653  -7.688812  -4.863874 -20.088452   1.581805 -16.565212 -12.759994 -13.598783  -0.081049 -62.714165  -0.068642   5.615280  -5.368144  12.758814 -21.946267   3.362232  -2.116190  13.545963   0.000059  -0.000230   0.376322  -0.659897  -1.702214  -1.605176   0.002316   0.003216  12.273191  -0.660778   8.245418  14.191115   0.001432   0.006311  13.807529   1.331697  -5.153001  -6.243482   0.004719   0.017467
 -2.560461   0.915515   4.544929   9.009381  -3.472063   1.915547   3.599223  -6.107776   0.614844   2.629592  -3.973770   7.033127  -5.189387   5.114045  -1.190283  -2.014868   7.867923   9.900393  -3.948016  20.651673  35.583690  -0.034444  78.661992   0.031156   5.442019   2.622580  -7.767356  -4.715827 -20.434525   1.161749 -15.509666 -13.182008 -13.797367  -0.071509 -62.503455  -0.060314   5.846310  -5.397476  12.320072 -21.762308   3.503384  -2.189807  13.561790   0.000044  -0.000168  -0.006754  -0.585014  -1.856579  -1.288067   0.002220   0.003078  11.972393  -0.573352   8.146288  14.774607   0.001318   0.005857  13.785916   1.416406  -5.172436  -5.483612   0.004284   0.015673
 -2.561279   0.915615   4.546899   8.989049  -3.476797   2.026728   3.737056  -5.994440   0.608465   2.786819  -3.971664   7.037690  -5.322739   5.096249  -1.162547  -2.071997   8.143802   9.965150  -3.954190  20.861688  35.602513  -0.033304  78.374078   0.030046   5.534650   2.574602  -7.842838  -4.577682 -20.752469   0.765480 -14.522988 -13.575732 -13.977589  -0.063041 -62.306143  -0.052956   6.067026  -5.425347  11.898958 -21.585143   3.634778  -2.255522  13.579073   0.000032  -0.000120  -0.368767  -0.514398  -1.999328  -0.996259   0.002079   0.002875  11.686067  -0.493128   8.055083  15.318088   0.001178   0.005349  13.766163   1.494841  -5.190584  -4.777603   0.003841   0.013957
 -2.562028   0.915733   4.549005   8.947437  -3.504809   2.162275   3.860838  -5.856205   0.593139   2.903692  -3.988638   7.007060  -5.459464   5.011573  -1.108753  -2.110491   8.439714  10.030997  -3.830940  21.001104  35.619960  -0.039284  77.765844   0.035290   5.704298   2.792445  -8.000224  -4.422297 -20.954358   0.379062 -13.436918 -13.974896 -14.206481  -0.054826 -62.161047  -0.045905   6.331702  -5.501018  11.603343 -21.381048   3.821818  -2.347261  13.606101   0.000023  -0.000067  -0.751931  -0.421806  -2.134626  -0.692134   0.001999   0.002847  11.399843  -0.454104   7.911361  15.906528   0.001116   0.004691  13.795689   1.495535  -5.220130  -4.204542   0.003474   0.011666
 -2.562761   0.915865   4.551170   8.887816  -3.549930   2.294125   3.970374  -5.715336   0.576247   3.023902  -3.995003   6.970949  -5.598587   4.929685  -1.057189  -2.112603   8.697880  10.101346  -3.684840  21.102123  35.634178  -0.042651  77.162390   0.038052   5.846077   2.837355  -8.102819  -4.252049 -21.112427  -0.010683 -12.403169 -14.330839 -14.435993  -0.047804 -62.024210  -0.039852   6.590500  -5.593270  11.261447 -21.163373   4.000195  -2.432367  13.645882   0.000014  -0.000018  -1.121377  -0.332406  -2.256449  -0.420325   0.001860   0.002705  11.134005  -0.414473   7.772223  16.491339   0.001013   0.004084  13.832866   1.504811  -5.243526  -3.594066   0.003095   0.009837
 -2.563479   0.916010   4.553336   8.818256  -3.605653   2.420894   4.070952  -5.577351   0.556349   3.146041  -3.994320   6.932310  -5.732193   4.853260  -1.008042  -2.095699   8.922690  10.171500  -3.533138  21.181767  35.648274  -0.043592  76.589592   0.038615   5.971215   2.807418  -8.177508  -4.081332 -21.239124  -0.391155 -11.428882 -14.650387 -14.654948  -0.041832 -61.891768  -0.034696   6.834518  -5.668244  10.904162 -20.943198   4.166129  -2.510628  13.695950   0.000004   0.000021  -1.469800  -0.248020  -2.368417  -0.184149   0.001688   0.002486  10.884744  -0.376818   7.644644  17.048462   0.000861   0.003526  13.870462   1.515645  -5.264262  -3.005681   0.002688   0.008306
 -2.564175   0.916166   4.555474   8.743496  -3.668362   2.543269   4.164667  -5.443752   0.532846   3.266869  -3.988567   6.891661  -5.857937   4.781868  -0.961808  -2.069033   9.121584  10.238701  -3.382902  21.247370  35.661642  -0.042835  76.050847   0.037702   6.086309   2.747433  -8.239004  -3.915885 -21.342490  -0.754876 -10.514417 -14.940546 -14.859239  -0.036690 -61.764478  -0.030266   7.064194  -5.724427  10.549459 -20.725177   4.320188  -2.583955  13.752609  -0.000006   0.000049  -1.795974  -0.168893  -2.472156   0.019878   0.001505   0.002229  10.648775  -0.341910   7.530529  17.573431   0.000672   0.003027  13.907668   1.527696  -5.282598  -2.441979   0.002266   0.007031
